<svg id="svg" fill="#030303" stroke="#030303" width="201" height="201" version="1.1" viewBox="143 143 514 514" xmlns="http://www.w3.org/2000/svg" transform="matrix(-1, 0, 0, 1, 0, 0)" stroke-width="0">
    <g id="IconSvg_bgCarrier" stroke-width="0"></g>
    <g id="IconSvg_tracerCarrier" stroke-linecap="round" stroke-linejoin="round" stroke="#CCCCCC" stroke-width="0">
      <g xmlns="http://www.w3.org/2000/svg">
  <path d="m435.19 316.4c-1.418-2.7539-29.992-43.531-31.488-41.801-31.961 35.738-80.375 107.61-30.543 149.57v-0.003907c7.3945 5.9219 15.121 11.414 23.141 16.453 0.54297 0.31641 1.2031 0.35937 1.7773 0.10937s0.99609-0.75781 1.1367-1.3672c0.77734-5.2109 1.0938-10.48 0.94531-15.746-2.3828-3.957-5.6094-7.3438-9.4453-9.918-2.4961-1.4492-5.1367-2.6328-7.875-3.543-6.6602-1.5781-12.363-5.8555-15.742-11.809-0.69531-1.5625 0.007812-3.3945 1.5742-4.0938 1.5664-0.69531 3.3984 0.011719 4.0938 1.5781 2.0469 4.5664 6.9258 6.4531 12.043 8.5 3.0195 1.0664 5.918 2.4375 8.6602 4.0938 1.9492 1.2578 3.7695 2.707 5.4297 4.3281-0.78906-8.3438-2.125-16.766-3.4648-25.27h0.003906c-2.0625-11.719-3.0625-23.602-2.9922-35.5 0-1.0898 0.88281-1.9688 1.9688-1.9688 1.0859 0 1.9688 0.87891 1.9688 1.9688 1.2227 11.465 3.4883 22.793 6.7695 33.848l0.55078 1.8906c0.71875-1.3945 1.5352-2.7344 2.4414-4.0156 2.1367-2.6953 4.5664-5.1523 7.2422-7.3203 4.1328-2.9375 6.957-7.3711 7.8711-12.359 0-1.7188 1.3906-3.1094 3.1094-3.1094 1.7148 0 3.1094 1.3906 3.1094 3.1094-0.94141 6.6836-4.5859 12.688-10.078 16.609-2.1055 1.8008-4.0312 3.8047-5.7461 5.9844-2.2422 3.2344-3.8477 6.8672-4.7227 10.703 2.0312 7.5195 3.6602 15.141 4.8789 22.832 0.75 4.8438 1.168 9.7383 1.2617 14.641-0.023437 0.8125 0.45703 1.5547 1.207 1.8672s1.6133 0.13281 2.1758-0.44922c16.477-14.738 27.348-34.723 30.762-56.562 3.4141-21.84-0.83203-44.188-12.023-63.25z"></path>
  <path d="m260.11 392.12c-6.3906 24.863-2.5039 51.25 10.785 73.211 10.383 15.031 24.809 26.816 41.609 33.992 16.801 7.1719 35.289 9.4453 53.324 6.5508-5.2031-6.8242-10.887-13.27-17-19.289-4.2695-1.7344-8.8633-2.5156-13.461-2.2812-2.6758 0.32422-5.3125 0.90234-7.875 1.7305-6.207 2.668-13.234 2.668-19.441 0-0.72266-0.39453-1.2539-1.0625-1.4844-1.8516-0.22656-0.78906-0.13281-1.6406 0.26172-2.3594 0.82812-1.5 2.7109-2.0469 4.2109-1.2188 4.8047 1.8008 10.125 1.6289 14.801-0.47266 3.0508-0.94531 6.1914-1.5781 9.3672-1.8906 2.3047-0.23047 4.625-0.23047 6.9297 0-5.5898-6.2188-11.809-12.121-17.949-18.105-8.6523-8.1445-16.559-17.047-23.617-26.605-0.32422-0.41797-0.46875-0.94922-0.40234-1.4727s0.33984-1 0.75781-1.3242c0.86719-0.67188 2.1211-0.51562 2.793 0.35547 7.7656 8.4141 16.277 16.105 25.426 22.984l1.5742 1.1797 0.003906 0.003907c-0.26953-1.5625-0.42578-3.1406-0.47266-4.7266 0.015625-3.1992 0.35938-6.3906 1.0234-9.5234 1.6289-4.8398 1.2891-10.129-0.94531-14.719-0.98047-1.4141-0.625-3.3516 0.78516-4.332 1.4141-0.97656 3.3516-0.625 4.332 0.78906 3.1758 5.9883 3.7461 13.02 1.5742 19.441-0.5625 2.5898-0.87891 5.2266-0.94531 7.875 0.12891 3.9336 1.0078 7.8086 2.5977 11.414 5.9844 4.7227 11.57 10.156 17.633 15.273v-0.003906c5.8594 5.1289 11.309 10.707 16.297 16.688 0.94531-13.934 1.0234-38.102-7.1641-54.004-17.633-34.082-59.906-53.762-105.33-47.309z"></path>
  <path d="m539.88 392.12c-45.422-6.1406-87.695 13.539-105.64 48.02-7.8711 15.742-7.8711 40.07-7.1641 54.004 4.9883-5.9805 10.434-11.562 16.297-16.688 5.9844-5.1953 11.57-10.547 17.633-15.273 1.5859-3.6055 2.4688-7.4766 2.5977-11.414-0.066407-2.6484-0.38281-5.2852-0.94531-7.8711-2.0547-6.4414-1.3711-13.445 1.8906-19.367 0.97656-1.4141 2.9141-1.7656 4.3281-0.78516 1.4141 0.97656 1.7656 2.9141 0.78516 4.3281-2.2344 4.5938-2.5742 9.8789-0.94141 14.723 0.66016 3.1289 1.0039 6.3203 1.0234 9.5234-0.050782 1.582-0.20703 3.1602-0.47266 4.7227l1.5742-1.1797c9.2656-6.8906 17.879-14.609 25.742-23.066 0.67188-0.86719 1.9219-1.0273 2.793-0.35547 0.87109 0.67578 1.0273 1.9258 0.35547 2.7969-7.0586 9.5586-14.965 18.465-23.617 26.605-6.1406 5.9844-12.359 11.965-17.949 18.105 2.3047-0.23047 4.625-0.23047 6.9297 0 3.1758 0.3125 6.3164 0.94531 9.3672 1.8906 4.6758 2.1055 9.9961 2.2734 14.797 0.47266 1.5-0.82422 3.3867-0.28125 4.2148 1.2188 0.82422 1.5 0.27734 3.3867-1.2227 4.2148-6.207 2.6641-13.234 2.6641-19.441 0-2.5625-0.82812-5.1992-1.4102-7.875-1.7344-4.6523-0.50391-9.3555 0.035156-13.773 1.5742-6.1133 5.9688-11.793 12.363-17.004 19.129 18.035 2.8945 36.527 0.625 53.328-6.5508 16.801-7.1719 31.227-18.957 41.609-33.988 13.246-21.922 17.129-48.242 10.781-73.055z"></path>
  <path d="m413.46 525.48h-15.746c2.6367-21.832 3.4258-43.848 2.3633-65.812v-0.55078c-0.34766-2.7188 1.5703-5.2031 4.2891-5.5508s5.2031 1.5742 5.5508 4.293c3.8047 22.324 4.9922 45.02 3.543 67.621z"></path>
  <path d="m624.27 355.05-21.098-7.8711v-0.003907c-10.391-3.7852-18.711-11.773-22.918-22.004-4.2109-10.227-3.9219-21.754 0.79688-31.762l9.6055-20.23c2.9062-6.0938 3.8516-12.938 2.7109-19.59s-4.3164-12.789-9.0898-17.566l-20.309-19.992c-4.7734-4.7734-10.91-7.9492-17.566-9.0898-6.6523-1.1406-13.496-0.19531-19.59 2.7109l-20.23 9.2891c-10.086 4.8398-21.754 5.1602-32.09 0.87891-10.336-4.2812-18.359-12.758-22.07-23.312l-7.8711-21.098c-2.293-6.2461-6.4375-11.645-11.883-15.473-5.4453-3.8242-11.93-5.8984-18.582-5.9414h-28.184c-6.7461 0.003906-13.324 2.0898-18.836 5.9805-5.5117 3.8906-9.6836 9.3906-11.941 15.746l-7.8711 21.098c-3.7891 10.414-11.789 18.75-22.035 22.961-10.25 4.2109-21.797 3.9062-31.812-0.83984l-20.23-9.2891c-6.0938-2.9062-12.938-3.8516-19.59-2.7109s-12.789 4.3164-17.566 9.0898l-19.992 19.992c-4.7734 4.7773-7.9492 10.914-9.0898 17.566s-0.19531 13.496 2.7109 19.59l9.2891 20.23c4.8398 10.086 5.1602 21.754 0.87891 32.09s-12.758 18.363-23.312 22.07l-21.098 7.8711c-6.2461 2.293-11.645 6.4414-15.473 11.883-3.8242 5.4453-5.8984 11.93-5.9414 18.582v28.262c0.003906 6.7461 2.0898 13.328 5.9805 18.836 3.8906 5.5117 9.3906 9.6836 15.746 11.945l21.098 7.8711c10.395 3.7891 18.711 11.773 22.922 22.004 4.207 10.23 3.918 21.758-0.80078 31.762l-9.2891 20.23c-2.9062 6.0938-3.8516 12.938-2.7109 19.59 1.1406 6.6562 4.3164 12.793 9.0898 17.566l19.996 19.996h-0.003906c4.7773 4.7695 10.914 7.9453 17.566 9.0859 6.6523 1.1445 13.496 0.19531 19.59-2.7109l20.23-9.2891c10.086-4.8398 21.754-5.1562 32.09-0.875s18.363 12.758 22.07 23.312l7.8711 21.098v-0.003906c2.2617 6.3594 6.4336 11.859 11.945 15.75 5.5078 3.8906 12.09 5.9766 18.836 5.9766h28.262c6.7461 0 13.324-2.0859 18.836-5.9766 5.5117-3.8906 9.6836-9.3906 11.941-15.75l7.8711-21.098v0.003907c3.7344-10.367 11.641-18.695 21.801-22.957 10.16-4.2656 21.641-4.0742 31.652 0.51953l20.23 9.6055c6.0938 2.9062 12.938 3.8516 19.59 2.7109 6.6562-1.1406 12.793-4.3164 17.566-9.0898l19.996-19.996v0.003906c4.7695-4.7773 7.9453-10.914 9.0859-17.566 1.1445-6.6523 0.19531-13.496-2.7109-19.59l-9.2891-20.547c-4.8398-10.086-5.1562-21.754-0.875-32.09 4.2812-10.336 12.758-18.359 23.312-22.07l21.098-7.8711h-0.003906c6.3594-2.2617 11.859-6.4336 15.75-11.941 3.8906-5.5117 5.9766-12.094 5.9766-18.84v-27.867c-0.003906-6.7969-2.1328-13.422-6.082-18.953-3.9531-5.5312-9.5312-9.6914-15.957-11.902zm-224.27 210.26c-43.844 0-85.895-17.418-116.89-48.422-31.004-31-48.418-73.047-48.418-116.89s17.414-85.895 48.418-116.89c31-31.004 73.051-48.418 116.89-48.418s85.891 17.414 116.89 48.418c31.004 31 48.422 73.051 48.422 116.89s-17.418 85.891-48.422 116.89c-31 31.004-73.047 48.422-116.89 48.422z"></path>
 </g>

      </g>
     <g id="IconSvg_iconCarrier">
      <g xmlns="http://www.w3.org/2000/svg">
  <path d="m435.19 316.4c-1.418-2.7539-29.992-43.531-31.488-41.801-31.961 35.738-80.375 107.61-30.543 149.57v-0.003907c7.3945 5.9219 15.121 11.414 23.141 16.453 0.54297 0.31641 1.2031 0.35937 1.7773 0.10937s0.99609-0.75781 1.1367-1.3672c0.77734-5.2109 1.0938-10.48 0.94531-15.746-2.3828-3.957-5.6094-7.3438-9.4453-9.918-2.4961-1.4492-5.1367-2.6328-7.875-3.543-6.6602-1.5781-12.363-5.8555-15.742-11.809-0.69531-1.5625 0.007812-3.3945 1.5742-4.0938 1.5664-0.69531 3.3984 0.011719 4.0938 1.5781 2.0469 4.5664 6.9258 6.4531 12.043 8.5 3.0195 1.0664 5.918 2.4375 8.6602 4.0938 1.9492 1.2578 3.7695 2.707 5.4297 4.3281-0.78906-8.3438-2.125-16.766-3.4648-25.27h0.003906c-2.0625-11.719-3.0625-23.602-2.9922-35.5 0-1.0898 0.88281-1.9688 1.9688-1.9688 1.0859 0 1.9688 0.87891 1.9688 1.9688 1.2227 11.465 3.4883 22.793 6.7695 33.848l0.55078 1.8906c0.71875-1.3945 1.5352-2.7344 2.4414-4.0156 2.1367-2.6953 4.5664-5.1523 7.2422-7.3203 4.1328-2.9375 6.957-7.3711 7.8711-12.359 0-1.7188 1.3906-3.1094 3.1094-3.1094 1.7148 0 3.1094 1.3906 3.1094 3.1094-0.94141 6.6836-4.5859 12.688-10.078 16.609-2.1055 1.8008-4.0312 3.8047-5.7461 5.9844-2.2422 3.2344-3.8477 6.8672-4.7227 10.703 2.0312 7.5195 3.6602 15.141 4.8789 22.832 0.75 4.8438 1.168 9.7383 1.2617 14.641-0.023437 0.8125 0.45703 1.5547 1.207 1.8672s1.6133 0.13281 2.1758-0.44922c16.477-14.738 27.348-34.723 30.762-56.562 3.4141-21.84-0.83203-44.188-12.023-63.25z"></path>
  <path d="m260.11 392.12c-6.3906 24.863-2.5039 51.25 10.785 73.211 10.383 15.031 24.809 26.816 41.609 33.992 16.801 7.1719 35.289 9.4453 53.324 6.5508-5.2031-6.8242-10.887-13.27-17-19.289-4.2695-1.7344-8.8633-2.5156-13.461-2.2812-2.6758 0.32422-5.3125 0.90234-7.875 1.7305-6.207 2.668-13.234 2.668-19.441 0-0.72266-0.39453-1.2539-1.0625-1.4844-1.8516-0.22656-0.78906-0.13281-1.6406 0.26172-2.3594 0.82812-1.5 2.7109-2.0469 4.2109-1.2188 4.8047 1.8008 10.125 1.6289 14.801-0.47266 3.0508-0.94531 6.1914-1.5781 9.3672-1.8906 2.3047-0.23047 4.625-0.23047 6.9297 0-5.5898-6.2188-11.809-12.121-17.949-18.105-8.6523-8.1445-16.559-17.047-23.617-26.605-0.32422-0.41797-0.46875-0.94922-0.40234-1.4727s0.33984-1 0.75781-1.3242c0.86719-0.67188 2.1211-0.51562 2.793 0.35547 7.7656 8.4141 16.277 16.105 25.426 22.984l1.5742 1.1797 0.003906 0.003907c-0.26953-1.5625-0.42578-3.1406-0.47266-4.7266 0.015625-3.1992 0.35938-6.3906 1.0234-9.5234 1.6289-4.8398 1.2891-10.129-0.94531-14.719-0.98047-1.4141-0.625-3.3516 0.78516-4.332 1.4141-0.97656 3.3516-0.625 4.332 0.78906 3.1758 5.9883 3.7461 13.02 1.5742 19.441-0.5625 2.5898-0.87891 5.2266-0.94531 7.875 0.12891 3.9336 1.0078 7.8086 2.5977 11.414 5.9844 4.7227 11.57 10.156 17.633 15.273v-0.003906c5.8594 5.1289 11.309 10.707 16.297 16.688 0.94531-13.934 1.0234-38.102-7.1641-54.004-17.633-34.082-59.906-53.762-105.33-47.309z"></path>
  <path d="m539.88 392.12c-45.422-6.1406-87.695 13.539-105.64 48.02-7.8711 15.742-7.8711 40.07-7.1641 54.004 4.9883-5.9805 10.434-11.562 16.297-16.688 5.9844-5.1953 11.57-10.547 17.633-15.273 1.5859-3.6055 2.4688-7.4766 2.5977-11.414-0.066407-2.6484-0.38281-5.2852-0.94531-7.8711-2.0547-6.4414-1.3711-13.445 1.8906-19.367 0.97656-1.4141 2.9141-1.7656 4.3281-0.78516 1.4141 0.97656 1.7656 2.9141 0.78516 4.3281-2.2344 4.5938-2.5742 9.8789-0.94141 14.723 0.66016 3.1289 1.0039 6.3203 1.0234 9.5234-0.050782 1.582-0.20703 3.1602-0.47266 4.7227l1.5742-1.1797c9.2656-6.8906 17.879-14.609 25.742-23.066 0.67188-0.86719 1.9219-1.0273 2.793-0.35547 0.87109 0.67578 1.0273 1.9258 0.35547 2.7969-7.0586 9.5586-14.965 18.465-23.617 26.605-6.1406 5.9844-12.359 11.965-17.949 18.105 2.3047-0.23047 4.625-0.23047 6.9297 0 3.1758 0.3125 6.3164 0.94531 9.3672 1.8906 4.6758 2.1055 9.9961 2.2734 14.797 0.47266 1.5-0.82422 3.3867-0.28125 4.2148 1.2188 0.82422 1.5 0.27734 3.3867-1.2227 4.2148-6.207 2.6641-13.234 2.6641-19.441 0-2.5625-0.82812-5.1992-1.4102-7.875-1.7344-4.6523-0.50391-9.3555 0.035156-13.773 1.5742-6.1133 5.9688-11.793 12.363-17.004 19.129 18.035 2.8945 36.527 0.625 53.328-6.5508 16.801-7.1719 31.227-18.957 41.609-33.988 13.246-21.922 17.129-48.242 10.781-73.055z"></path>
  <path d="m413.46 525.48h-15.746c2.6367-21.832 3.4258-43.848 2.3633-65.812v-0.55078c-0.34766-2.7188 1.5703-5.2031 4.2891-5.5508s5.2031 1.5742 5.5508 4.293c3.8047 22.324 4.9922 45.02 3.543 67.621z"></path>
  <path d="m624.27 355.05-21.098-7.8711v-0.003907c-10.391-3.7852-18.711-11.773-22.918-22.004-4.2109-10.227-3.9219-21.754 0.79688-31.762l9.6055-20.23c2.9062-6.0938 3.8516-12.938 2.7109-19.59s-4.3164-12.789-9.0898-17.566l-20.309-19.992c-4.7734-4.7734-10.91-7.9492-17.566-9.0898-6.6523-1.1406-13.496-0.19531-19.59 2.7109l-20.23 9.2891c-10.086 4.8398-21.754 5.1602-32.09 0.87891-10.336-4.2812-18.359-12.758-22.07-23.312l-7.8711-21.098c-2.293-6.2461-6.4375-11.645-11.883-15.473-5.4453-3.8242-11.93-5.8984-18.582-5.9414h-28.184c-6.7461 0.003906-13.324 2.0898-18.836 5.9805-5.5117 3.8906-9.6836 9.3906-11.941 15.746l-7.8711 21.098c-3.7891 10.414-11.789 18.75-22.035 22.961-10.25 4.2109-21.797 3.9062-31.812-0.83984l-20.23-9.2891c-6.0938-2.9062-12.938-3.8516-19.59-2.7109s-12.789 4.3164-17.566 9.0898l-19.992 19.992c-4.7734 4.7773-7.9492 10.914-9.0898 17.566s-0.19531 13.496 2.7109 19.59l9.2891 20.23c4.8398 10.086 5.1602 21.754 0.87891 32.09s-12.758 18.363-23.312 22.07l-21.098 7.8711c-6.2461 2.293-11.645 6.4414-15.473 11.883-3.8242 5.4453-5.8984 11.93-5.9414 18.582v28.262c0.003906 6.7461 2.0898 13.328 5.9805 18.836 3.8906 5.5117 9.3906 9.6836 15.746 11.945l21.098 7.8711c10.395 3.7891 18.711 11.773 22.922 22.004 4.207 10.23 3.918 21.758-0.80078 31.762l-9.2891 20.23c-2.9062 6.0938-3.8516 12.938-2.7109 19.59 1.1406 6.6562 4.3164 12.793 9.0898 17.566l19.996 19.996h-0.003906c4.7773 4.7695 10.914 7.9453 17.566 9.0859 6.6523 1.1445 13.496 0.19531 19.59-2.7109l20.23-9.2891c10.086-4.8398 21.754-5.1562 32.09-0.875s18.363 12.758 22.07 23.312l7.8711 21.098v-0.003906c2.2617 6.3594 6.4336 11.859 11.945 15.75 5.5078 3.8906 12.09 5.9766 18.836 5.9766h28.262c6.7461 0 13.324-2.0859 18.836-5.9766 5.5117-3.8906 9.6836-9.3906 11.941-15.75l7.8711-21.098v0.003907c3.7344-10.367 11.641-18.695 21.801-22.957 10.16-4.2656 21.641-4.0742 31.652 0.51953l20.23 9.6055c6.0938 2.9062 12.938 3.8516 19.59 2.7109 6.6562-1.1406 12.793-4.3164 17.566-9.0898l19.996-19.996v0.003906c4.7695-4.7773 7.9453-10.914 9.0859-17.566 1.1445-6.6523 0.19531-13.496-2.7109-19.59l-9.2891-20.547c-4.8398-10.086-5.1562-21.754-0.875-32.09 4.2812-10.336 12.758-18.359 23.312-22.07l21.098-7.8711h-0.003906c6.3594-2.2617 11.859-6.4336 15.75-11.941 3.8906-5.5117 5.9766-12.094 5.9766-18.84v-27.867c-0.003906-6.7969-2.1328-13.422-6.082-18.953-3.9531-5.5312-9.5312-9.6914-15.957-11.902zm-224.27 210.26c-43.844 0-85.895-17.418-116.89-48.422-31.004-31-48.418-73.047-48.418-116.89s17.414-85.895 48.418-116.89c31-31.004 73.051-48.418 116.89-48.418s85.891 17.414 116.89 48.418c31.004 31 48.422 73.051 48.422 116.89s-17.418 85.891-48.422 116.89c-31 31.004-73.047 48.422-116.89 48.422z"></path>
 </g>

      </g>
      </svg>